<?xml version="1.0" encoding="utf-8"?>
<!-- Generator: Adobe Illustrator 25.4.1, SVG Export Plug-In . SVG Version: 6.00 Build 0)  -->
<svg version="1.1" id="Layer_1" xmlns="http://www.w3.org/2000/svg" xmlns:xlink="http://www.w3.org/1999/xlink" x="0px" y="0px"
	 viewBox="0 0 792 96" style="enable-background:new 0 0 792 96;" xml:space="preserve">
<style type="text/css">
	.st0{clip-path:url(#SVGID_00000138540480666788773760000012698712369223502744_);}
	.st1{fill-rule:evenodd;clip-rule:evenodd;fill:#FF4D4F;}
</style>
<g>
	<g>
		<defs>
			<rect id="SVGID_1_" width="792" height="96"/>
		</defs>
		<clipPath id="SVGID_00000171708457860490305570000013706575300713118352_">
			<use xlink:href="#SVGID_1_"  style="overflow:visible;"/>
		</clipPath>
		<g style="clip-path:url(#SVGID_00000171708457860490305570000013706575300713118352_);">
			<path d="M233.5,38.4h-57.7V19.2h72.7V0h-72.8c-5.1,0-9.9,2-13.5,5.6s-5.6,8.4-5.6,13.5v19.5c0,5.1,2,9.9,5.6,13.5
				s8.4,5.6,13.5,5.6h57.7v19.2H158V96h75.6c5.1,0,9.9-2,13.5-5.6s5.6-8.4,5.6-13.5V57.5c0-5.1-2-9.9-5.6-13.5
				C243.4,40.4,238.6,38.4,233.5,38.4z"/>
			<path d="M345.3,0h-57.9c-2.5,0-5,0.5-7.3,1.5s-4.4,2.4-6.2,4.1c-1.8,1.8-3.2,3.9-4.1,6.2c-1,2.3-1.4,4.8-1.4,7.3V77
				c0,2.5,0.5,5,1.4,7.3c1,2.3,2.4,4.4,4.1,6.2c1.8,1.8,3.9,3.2,6.2,4.1c2.3,1,4.8,1.5,7.3,1.5h57.9c5.1,0,9.9-2,13.5-5.6
				s5.6-8.4,5.6-13.5V19.1c0-5.1-2-9.9-5.6-13.5C355.2,2,350.4,0,345.3,0L345.3,0z M345.2,76.8h-57.6V19.2h57.6V76.8z"/>
			<path d="M548.1,0h-56.5c-5.1,0-9.9,2-13.5,5.6s-5.6,8.4-5.6,13.5V96h19.2V64.5H548V96h19.2V19.1c0-2.5-0.5-5-1.4-7.3
				c-1-2.3-2.4-4.4-4.1-6.2c-1.8-1.8-3.9-3.2-6.2-4.1C553.1,0.5,550.6,0,548.1,0z M548,45.3h-56.2V19.2H548V45.3z"/>
			<path d="M772.9,0h-56.5c-2.5,0-5,0.5-7.3,1.4c-2.3,1-4.4,2.4-6.2,4.1c-1.8,1.8-3.2,3.9-4.1,6.2c-1,2.3-1.5,4.8-1.5,7.3v77h19.2
				V64.5h56.3V96H792V19.1c0-5.1-2-9.9-5.6-13.5C782.8,2,778,0,772.9,0z M772.8,45.3h-56.2V19.2h56.2V45.3z"/>
			<path d="M661.1,76.8h-7.7L625.9,8c-0.9-2.4-2.6-4.4-4.7-5.8c-2.1-1.4-4.6-2.2-7.1-2.2H597c-3.4,0-6.6,1.3-9,3.7s-3.7,5.6-3.7,9
				V96h19.2V19.2h7.7L638.7,88c0.9,2.4,2.6,4.4,4.7,5.8c2.1,1.4,4.6,2.2,7.1,2.2h17.1c3.4,0,6.6-1.3,9-3.7c2.4-2.4,3.7-5.6,3.7-9V0
				h-19.2V76.8z"/>
			<path d="M400.6,0h-19.2v76.9c0,5.1,2,9.9,5.6,13.5s8.4,5.6,13.5,5.6h57.7V76.8h-57.6V0z"/>
			<path class="st1" d="M20.3,73.2c0.3-0.4,0.8-0.7,1.2-0.9c0.5-0.2,1-0.3,1.5-0.3h83.8c0.4,0,0.7,0.1,1,0.3
				c0.3,0.2,0.5,0.5,0.7,0.8c0.1,0.3,0.2,0.7,0.1,1s-0.2,0.7-0.5,0.9L90.3,94.8c-0.3,0.4-0.8,0.7-1.2,0.9c-0.5,0.2-1,0.3-1.5,0.3
				H3.8c-0.4,0-0.7-0.1-1-0.3c-0.3-0.2-0.5-0.5-0.7-0.8c-0.1-0.3-0.2-0.7-0.1-1s0.2-0.7,0.5-0.9L20.3,73.2z M108.2,56.9
				c0.2,0.3,0.4,0.6,0.5,0.9c0.1,0.3,0,0.7-0.1,1s-0.4,0.6-0.7,0.8c-0.3,0.2-0.6,0.3-1,0.3L23,60c-0.5,0-1-0.1-1.5-0.3
				s-0.9-0.5-1.2-0.9L2.5,39.1c-0.2-0.3-0.4-0.6-0.5-0.9c-0.1-0.3,0-0.7,0.1-1s0.4-0.6,0.7-0.8s0.6-0.3,1-0.3L87.6,36
				c0.5,0,1,0.1,1.5,0.3s0.9,0.5,1.2,0.9L108.2,56.9z M20.3,1.2c0.3-0.4,0.8-0.7,1.2-0.9C22,0.1,22.5,0,23,0l83.8,0.1
				c0.4,0,0.7,0.1,1,0.3s0.5,0.5,0.7,0.8c0.1,0.3,0.2,0.7,0.1,1s-0.2,0.7-0.5,0.9L90.3,22.8c-0.3,0.4-0.8,0.7-1.2,0.9
				c-0.5,0.2-1,0.3-1.5,0.3H3.8c-0.4,0-0.7-0.1-1-0.3c-0.3-0.2-0.5-0.5-0.7-0.8c-0.1-0.3-0.2-0.7-0.1-1s0.2-0.7,0.5-0.9L20.3,1.2z"
				/>
		</g>
	</g>
</g>
</svg>
