<?xml version="1.0" encoding="utf-8"?>
<!-- Generator: Adobe Illustrator 25.4.1, SVG Export Plug-In . SVG Version: 6.00 Build 0)  -->
<svg version="1.1" id="Layer_1" xmlns="http://www.w3.org/2000/svg" xmlns:xlink="http://www.w3.org/1999/xlink" x="0px" y="0px"
	 viewBox="0 0 792 96" style="enable-background:new 0 0 792 96;" xml:space="preserve">
<style type="text/css">
	.st0{clip-path:url(#SVGID_00000142889906800311068130000001631509196077607337_);}
	.st1{fill-rule:evenodd;clip-rule:evenodd;fill:url(#SVGID_00000124840751485938711890000011966387204695381395_);}
</style>
<g>
	<defs>
		<rect id="SVGID_1_" width="792" height="96"/>
	</defs>
	<clipPath id="SVGID_00000155825025391428945220000011966121898233705405_">
		<use xlink:href="#SVGID_1_"  style="overflow:visible;"/>
	</clipPath>
	<g style="clip-path:url(#SVGID_00000155825025391428945220000011966121898233705405_);">
		<path d="M233.5,38.4h-57.7V19.2h72.7V0h-72.8c-5.1,0-9.9,2-13.5,5.6c-3.6,3.6-5.6,8.4-5.6,13.5v19.5c0,5.1,2,9.9,5.6,13.5
			c3.6,3.6,8.4,5.6,13.5,5.6h57.7v19.2H158V96h75.6c5.1,0,9.9-2,13.5-5.6c3.6-3.6,5.6-8.4,5.6-13.5V57.5c0-5.1-2-9.9-5.6-13.5
			C243.4,40.4,238.6,38.4,233.5,38.4z"/>
		<path d="M345.3,0h-57.9c-2.5,0-5,0.5-7.3,1.5c-2.3,1-4.4,2.4-6.2,4.1c-1.8,1.8-3.2,3.9-4.1,6.2c-1,2.3-1.4,4.8-1.4,7.3v57.9
			c0,2.5,0.5,5,1.4,7.3c1,2.3,2.4,4.4,4.1,6.2c1.8,1.8,3.9,3.2,6.2,4.1c2.3,1,4.8,1.5,7.3,1.5h57.9c5.1,0,9.9-2,13.5-5.6
			c3.6-3.6,5.6-8.4,5.6-13.5V19.1c0-5.1-2-9.9-5.6-13.5C355.2,2,350.4,0,345.3,0L345.3,0z M345.2,76.8h-57.6V19.2h57.6V76.8z"/>
		<path d="M548.1,0h-56.5c-5.1,0-9.9,2-13.5,5.6c-3.6,3.6-5.6,8.4-5.6,13.5V96h19.2V64.5H548V96h19.2V19.1c0-2.5-0.5-5-1.4-7.3
			c-1-2.3-2.4-4.4-4.1-6.2c-1.8-1.8-3.9-3.2-6.2-4.1C553.1,0.5,550.6,0,548.1,0z M548,45.3h-56.2V19.2H548V45.3z"/>
		<path d="M772.9,0h-56.5c-2.5,0-5,0.5-7.3,1.4c-2.3,1-4.4,2.4-6.2,4.1c-1.8,1.8-3.2,3.9-4.1,6.2c-1,2.3-1.5,4.8-1.5,7.3V96h19.2
			V64.5h56.3V96H792V19.1c0-5.1-2-9.9-5.6-13.5C782.8,2,778,0,772.9,0z M772.8,45.3h-56.2V19.2h56.2V45.3z"/>
		<path d="M661.1,76.8h-7.7L625.9,8c-0.9-2.4-2.6-4.4-4.7-5.8c-2.1-1.4-4.6-2.2-7.1-2.2H597c-3.4,0-6.6,1.3-9,3.7
			c-2.4,2.4-3.7,5.6-3.7,9V96h19.2V19.2h7.7L638.7,88c0.9,2.4,2.6,4.4,4.7,5.8c2.1,1.4,4.6,2.2,7.1,2.2h17.1c3.4,0,6.6-1.3,9-3.7
			c2.4-2.4,3.7-5.6,3.7-9V0h-19.2L661.1,76.8z"/>
		<path d="M400.6,0h-19.2v76.9c0,5.1,2,9.9,5.6,13.5c3.6,3.6,8.4,5.6,13.5,5.6h57.7V76.8h-57.6V0z"/>
		
			<linearGradient id="SVGID_00000163047830993048808730000001591384730774282127_" gradientUnits="userSpaceOnUse" x1="5.2184" y1="-0.1148" x2="105.4152" y2="100.0816" gradientTransform="matrix(1 0 0 -1 0 98)">
			<stop  offset="0" style="stop-color:#9945FF"/>
			<stop  offset="0.14" style="stop-color:#8A53F4"/>
			<stop  offset="0.42" style="stop-color:#6377D6"/>
			<stop  offset="0.79" style="stop-color:#24B0A7"/>
			<stop  offset="0.99" style="stop-color:#00D18C"/>
			<stop  offset="1" style="stop-color:#00D18C"/>
		</linearGradient>
		<path style="fill-rule:evenodd;clip-rule:evenodd;fill:url(#SVGID_00000163047830993048808730000001591384730774282127_);" d="
			M20.3,73.2c0.3-0.4,0.8-0.7,1.2-0.9c0.5-0.2,1-0.3,1.5-0.3h83.8c0.4,0,0.7,0.1,1,0.3c0.3,0.2,0.5,0.5,0.7,0.8
			c0.1,0.3,0.2,0.7,0.1,1c-0.1,0.3-0.2,0.7-0.5,0.9L90.3,94.8c-0.3,0.4-0.8,0.7-1.2,0.9c-0.5,0.2-1,0.3-1.5,0.3H3.8
			c-0.4,0-0.7-0.1-1-0.3c-0.3-0.2-0.5-0.5-0.7-0.8c-0.1-0.3-0.2-0.7-0.1-1s0.2-0.7,0.5-0.9L20.3,73.2z M108.2,56.9
			c0.2,0.3,0.4,0.6,0.5,0.9c0.1,0.3,0,0.7-0.1,1c-0.1,0.3-0.4,0.6-0.7,0.8c-0.3,0.2-0.6,0.3-1,0.3L23,60c-0.5,0-1-0.1-1.5-0.3
			c-0.5-0.2-0.9-0.5-1.2-0.9L2.5,39.1c-0.2-0.3-0.4-0.6-0.5-0.9c-0.1-0.3,0-0.7,0.1-1c0.1-0.3,0.4-0.6,0.7-0.8
			c0.3-0.2,0.6-0.3,1-0.3L87.6,36c0.5,0,1,0.1,1.5,0.3c0.5,0.2,0.9,0.5,1.2,0.9L108.2,56.9z M20.3,1.2c0.3-0.4,0.8-0.7,1.2-0.9
			C22,0.1,22.5,0,23,0l83.8,0.1c0.4,0,0.7,0.1,1,0.3c0.3,0.2,0.5,0.5,0.7,0.8c0.1,0.3,0.2,0.7,0.1,1c-0.1,0.3-0.2,0.7-0.5,0.9
			L90.3,22.8c-0.3,0.4-0.8,0.7-1.2,0.9c-0.5,0.2-1,0.3-1.5,0.3H3.8c-0.4,0-0.7-0.1-1-0.3c-0.3-0.2-0.5-0.5-0.7-0.8
			c-0.1-0.3-0.2-0.7-0.1-1c0.1-0.3,0.2-0.7,0.5-0.9L20.3,1.2z"/>
	</g>
</g>
</svg>
